<?xml version="1.0" encoding="UTF-8" ?>
<!DOCTYPE svg PUBLIC "-//W3C//DTD SVG 1.1//EN" "http://www.w3.org/Graphics/SVG/1.1/DTD/svg11.dtd">
<svg width="480pt" height="480pt" viewBox="0 0 480 480" version="1.1" xmlns="http://www.w3.org/2000/svg">
<g id="#ffffffff">
</g>
<g id="#00c89fff">
<path fill="#00c89f" opacity="1.00" d=" M 287.14 57.10 C 291.37 54.40 296.54 52.07 301.62 53.55 C 306.13 55.26 307.69 60.54 307.58 64.96 C 307.60 120.10 307.59 175.24 307.58 230.38 C 359.74 230.38 411.90 230.35 464.06 230.39 C 468.22 230.37 473.23 231.77 474.87 236.03 C 476.59 241.09 473.98 246.24 471.68 250.65 C 458.02 275.79 443.75 300.60 429.27 325.27 C 424.97 331.00 419.30 336.34 412.15 338.07 C 406.20 339.50 400.04 339.45 393.97 339.54 C 376.66 339.60 359.36 339.56 342.05 339.57 C 334.52 339.54 326.05 339.89 320.11 345.14 C 315.17 349.86 315.78 357.49 317.71 363.47 C 321.92 376.24 329.95 387.23 335.89 399.18 C 329.77 395.08 323.85 390.68 318.20 385.96 C 300.62 370.41 284.53 353.14 270.93 333.98 C 230.14 277.45 209.04 208.28 205.20 139.06 C 204.53 123.88 210.74 107.27 224.32 99.30 C 245.27 85.24 266.21 71.18 287.14 57.10 Z" />
</g>
<g id="#002cbaff">
<path fill="#002cba" opacity="1.00" d=" M 4.75 167.66 C 6.91 163.13 12.36 161.73 16.97 161.81 C 48.64 161.82 80.31 161.81 111.98 161.82 C 117.47 161.93 123.25 162.15 128.19 164.83 C 133.22 167.55 137.01 171.94 140.86 176.05 C 152.42 189.20 163.95 202.37 175.50 215.52 C 176.16 216.21 177.34 217.75 178.26 216.42 C 184.62 209.53 190.64 202.32 196.96 195.38 C 202.24 229.02 215.25 261.15 232.84 290.19 C 255.25 326.89 284.70 359.10 318.20 385.96 C 323.85 390.68 329.77 395.08 335.89 399.18 C 339.71 403.35 343.36 407.69 347.03 411.99 C 349.79 415.19 351.67 419.82 349.94 423.95 C 348.05 428.05 343.22 429.72 338.98 429.66 C 306.99 429.69 275.00 429.66 243.02 429.68 C 237.65 429.68 232.02 429.53 227.12 427.07 C 221.98 424.41 218.03 420.06 214.16 415.86 C 202.79 402.91 191.41 389.96 180.07 376.98 C 179.21 375.95 178.17 375.10 177.06 374.37 C 165.00 387.87 153.19 401.60 141.17 415.14 C 137.23 419.52 133.19 424.04 127.95 426.90 C 123.07 429.46 117.43 429.68 112.05 429.68 C 80.03 429.66 48.01 429.69 16.00 429.67 C 11.40 429.80 5.93 427.84 4.48 423.05 C 3.08 418.16 6.05 413.62 9.19 410.18 C 42.40 371.99 75.66 333.84 109.05 295.81 C 75.61 257.30 41.84 219.08 8.46 180.52 C 5.34 177.14 2.96 172.26 4.75 167.66 Z" />
</g>
</svg>
